<svg xmlns="http://www.w3.org/2000/svg" width="15.679" height="15.679"><path data-name="Path 95" d="M10.879 1.28A3.52 3.52 0 0114.4 4.8v6.08a3.52 3.52 0 01-3.52 3.52H4.8a3.52 3.52 0 01-3.52-3.52V4.8A3.52 3.52 0 014.8 1.28h6.08m0-1.28H4.8A4.814 4.814 0 000 4.8v6.08a4.814 4.814 0 004.8 4.8h6.08a4.814 4.814 0 004.8-4.8V4.8a4.814 4.814 0 00-4.8-4.8z" fill="#fff"/><path data-name="Path 96" d="M12.022 2.72a.917.917 0 10.917.917.917.917 0 00-.917-.917z" fill="#fff"/><path data-name="Path 97" d="M7.882 5.035a2.829 2.829 0 11-2.827 2.827 2.829 2.829 0 012.827-2.827m0-1.28a4.108 4.108 0 102.91 1.2 4.108 4.108 0 00-2.91-1.2z" fill="#fff"/></svg>