<svg xmlns="http://www.w3.org/2000/svg" width="16.136" height="12.773"><path data-name="Path 98" d="M12.794 12.773a.576.576 0 01-.334-.1L6.922 8.786a.579.579 0 01-.075-.882l1.51-1.533-2.587 1.62 1.152 2.645.507-.507a.576.576 0 01.818.812l-1.152 1.106a.576.576 0 01-.939-.179L4.491 7.985a.576.576 0 01.23-.714l7.214-4.443a.576.576 0 01.709.9L8.138 8.234l4.287 3.008 2.3-9.795L2.186 6.112l1.389.576a.577.577 0 11-.432 1.071L.371 6.631a.576.576 0 010-1.077L15.363.034a.577.577 0 01.755.686l-2.766 11.609a.576.576 0 01-.357.409.617.617 0 01-.2.035z" fill="#fff"/></svg>