<svg xmlns="http://www.w3.org/2000/svg" width="15" height="15"><path data-name="Path 99" d="M7.636 14.614a7.376 7.376 0 01-3.56-.909l-4.077 1.3 1.329-3.92A7.232 7.232 0 01.272 7.307a7.364 7.364 0 117.364 7.307zm0-13.45a6.174 6.174 0 00-6.19 6.143 6.08 6.08 0 001.179 3.6l-.773 2.281 2.379-.756A6.159 6.159 0 107.636 1.164zm3.718 7.826c-.045-.074-.166-.119-.346-.209s-1.068-.527-1.233-.583-.286-.09-.406.09-.466.583-.572.7-.21.135-.391.045a4.939 4.939 0 01-1.452-.889 5.393 5.393 0 01-1-1.24c-.105-.179-.011-.276.079-.365s.181-.209.271-.314a1.211 1.211 0 00.18-.3.327.327 0 00-.018-.311c-.045-.09-.406-.971-.557-1.33s-.3-.3-.406-.3-.226-.015-.346-.015a.666.666 0 00-.481.224 2 2 0 00-.63 1.496 3.466 3.466 0 00.737 1.852 7.379 7.379 0 003.083 2.7c1.836.717 1.836.478 2.167.448a1.825 1.825 0 001.218-.851 1.492 1.492 0 00.105-.852z" fill="#fff" fill-rule="evenodd"/></svg>